# Blender v3.0.0 Alpha OBJ File: 'bricks.blend'
# www.blender.org
mtllib indents2.mtl
o Cube.015_Cube.016
v -0.737404 -0.583773 1.401248
v -0.737404 -0.552725 1.432296
v -0.768452 -0.552725 1.401248
v -0.737404 -0.574680 1.423202
v -0.755330 -0.570651 1.419174
v -0.759358 -0.552725 1.423202
v -0.759358 -0.574680 1.401248
v -0.768452 0.552725 1.401248
v -0.737404 0.552725 1.432296
v -0.737404 0.583773 1.401248
v -0.759358 0.552725 1.423202
v -0.755329 0.570651 1.419174
v -0.737404 0.574680 1.423202
v -0.759358 0.574680 1.401248
v -0.768452 -0.552725 -1.401248
v -0.737404 -0.552725 -1.432296
v -0.737404 -0.583773 -1.401248
v -0.759358 -0.552725 -1.423202
v -0.755329 -0.570651 -1.419174
v -0.737404 -0.574680 -1.423202
v -0.759358 -0.574680 -1.401248
v -0.737404 0.583773 -1.401248
v -0.737404 0.552725 -1.432296
v -0.768452 0.552725 -1.401248
v -0.737404 0.574680 -1.423202
v -0.755330 0.570651 -1.419174
v -0.759358 0.552725 -1.423202
v -0.759358 0.574680 -1.401248
v 0.768452 -0.552725 1.401248
v 0.737404 -0.552725 1.432296
v 0.737404 -0.583773 1.401248
v 0.759358 -0.552725 1.423202
v 0.755329 -0.570651 1.419174
v 0.737404 -0.574680 1.423202
v 0.759358 -0.574680 1.401248
v 0.737404 0.583773 1.401248
v 0.737404 0.552725 1.432296
v 0.768452 0.552725 1.401248
v 0.737404 0.574680 1.423202
v 0.755330 0.570651 1.419174
v 0.759358 0.552725 1.423202
v 0.759358 0.574680 1.401248
v 0.737404 -0.552725 -1.432296
v 0.768452 -0.552725 -1.401248
v 0.737404 -0.583773 -1.401248
v 0.759358 -0.552725 -1.423202
v 0.755329 -0.570651 -1.419174
v 0.759358 -0.574680 -1.401248
v 0.737404 -0.574680 -1.423202
v 0.737404 0.583773 -1.401248
v 0.768452 0.552725 -1.401248
v 0.737404 0.552725 -1.432296
v 0.759358 0.574680 -1.401248
v 0.755330 0.570651 -1.419174
v 0.759358 0.552725 -1.423202
v 0.737404 0.574680 -1.423202
v -0.768452 -0.552725 0.000000
v -0.737404 -0.583773 0.000000
v -0.759358 -0.574680 0.000000
v -0.768452 0.552725 0.000000
v -0.737404 0.583773 0.000000
v -0.759358 0.574680 0.000000
v 0.768452 -0.552725 0.000000
v 0.737404 -0.583773 0.000000
v 0.759358 -0.574680 0.000000
v 0.768452 0.552725 0.000000
v 0.737404 0.583773 0.000000
v 0.759358 0.574680 0.000000
v -0.553287 -0.564995 0.146344
v -0.612852 -0.583773 0.105831
v -0.581701 -0.578273 0.127018
v 0.612852 -0.583773 0.105831
v 0.553287 -0.564995 0.146344
v 0.581701 -0.578273 0.127018
v 0.612701 -0.583773 1.276545
v 0.553373 -0.565055 1.217217
v 0.581682 -0.578291 1.245526
v -0.553373 -0.565055 1.217217
v -0.612701 -0.583773 1.276545
v -0.581682 -0.578291 1.245526
v 0.553287 0.564995 0.146344
v 0.612852 0.583773 0.105831
v 0.581701 0.578273 0.127018
v -0.612852 0.583773 0.105831
v -0.553287 0.564995 0.146344
v -0.581701 0.578273 0.127018
v -0.612701 0.583773 1.276545
v -0.553373 0.565055 1.217217
v -0.581682 0.578291 1.245526
v 0.553373 0.565055 1.217217
v 0.612701 0.583773 1.276545
v 0.581682 0.578291 1.245526
v 0.553373 0.565055 -1.217217
v 0.612701 0.583773 -1.276545
v 0.581682 0.578291 -1.245526
v -0.612701 0.583773 -1.276545
v -0.553373 0.565055 -1.217217
v -0.581682 0.578291 -1.245526
v -0.612852 0.583773 -0.105831
v -0.553287 0.564995 -0.146344
v -0.581701 0.578273 -0.127018
v 0.553287 0.564995 -0.146344
v 0.612852 0.583773 -0.105831
v 0.581701 0.578273 -0.127018
v -0.553373 -0.565055 -1.217217
v -0.612701 -0.583773 -1.276545
v -0.581682 -0.578291 -1.245526
v 0.612701 -0.583773 -1.276545
v 0.553373 -0.565055 -1.217217
v 0.581682 -0.578291 -1.245526
v 0.612852 -0.583773 -0.105831
v 0.553287 -0.564995 -0.146344
v 0.581701 -0.578273 -0.127018
v -0.553287 -0.564995 -0.146344
v -0.612852 -0.583773 -0.105831
v -0.581701 -0.578273 -0.127018
v -0.422036 -0.493930 0.245545
v -0.479563 -0.512709 0.196487
v -0.451746 -0.499430 0.218316
v 0.479563 -0.512709 0.196487
v 0.422036 -0.493930 0.245545
v 0.451746 -0.499430 0.218315
v 0.479478 -0.512648 1.143322
v 0.422036 -0.493930 1.085881
v 0.451721 -0.499412 1.115565
v -0.422036 -0.493930 1.085881
v -0.479478 -0.512648 1.143322
v -0.451721 -0.499412 1.115565
v 0.422036 0.493930 0.245545
v 0.479563 0.512709 0.196487
v 0.451746 0.499430 0.218316
v -0.479563 0.512709 0.196487
v -0.422036 0.493930 0.245545
v -0.451746 0.499430 0.218315
v -0.479478 0.512648 1.143322
v -0.422036 0.493930 1.085881
v -0.451721 0.499412 1.115565
v 0.422036 0.493930 1.085881
v 0.479478 0.512648 1.143322
v 0.451721 0.499412 1.115565
v 0.422036 0.493930 -1.085881
v 0.479478 0.512648 -1.143322
v 0.451721 0.499412 -1.115565
v -0.479478 0.512648 -1.143322
v -0.422036 0.493930 -1.085881
v -0.451721 0.499412 -1.115565
v -0.479563 0.512709 -0.196487
v -0.422036 0.493930 -0.245545
v -0.451746 0.499430 -0.218316
v 0.422036 0.493930 -0.245545
v 0.479563 0.512709 -0.196487
v 0.451746 0.499430 -0.218315
v -0.422036 -0.493930 -1.085881
v -0.479478 -0.512648 -1.143322
v -0.451721 -0.499412 -1.115565
v 0.479478 -0.512648 -1.143322
v 0.422036 -0.493930 -1.085881
v 0.451721 -0.499412 -1.115565
v 0.479563 -0.512709 -0.196487
v 0.422036 -0.493930 -0.245545
v 0.451746 -0.499430 -0.218316
v -0.422036 -0.493930 -0.245545
v -0.479563 -0.512709 -0.196487
v -0.451746 -0.499430 -0.218315
vt 0.839600 0.499409
vt 0.815554 0.739906
vt 0.815984 0.519463
vt 0.565547 0.763728
vt 0.838748 0.763369
vt 0.562559 0.500595
vt 0.586607 0.260097
vt 0.586175 0.480541
vt 0.836614 0.236277
vt 0.563413 0.236634
vt 0.225387 0.444906
vt 0.075939 0.295491
vt 0.225199 0.295223
vt 0.476479 0.444182
vt 0.327030 0.294766
vt 0.476192 0.293547
vt 0.626820 0.701358
vt 0.776318 0.551155
vt 0.776799 0.701289
vt 0.588342 0.740561
vt 0.557363 0.004979
vt 0.836609 0.226783
vt 0.563368 0.227170
vt 0.275707 0.232265
vt 0.296430 0.483919
vt 0.276711 0.507408
vt 0.036597 0.256879
vt 0.013309 0.233875
vt 0.037642 0.485049
vt 0.014204 0.508466
vt 0.014142 0.517542
vt 0.277597 0.734870
vt 0.004645 0.729475
vt 0.597864 0.472137
vt 0.787179 0.458300
vt 0.804093 0.471233
vt 0.844795 0.995021
vt 0.565552 0.773222
vt 0.838793 0.772833
vt 0.256866 0.484141
vt 0.538276 0.222131
vt 0.274819 0.004801
vt 0.547775 0.010196
vt 0.275661 0.222814
vt 0.004713 0.011715
vt 0.539109 0.505797
vt 0.514775 0.254624
vt 0.538213 0.231207
vt 0.255988 0.255754
vt 0.586296 0.520439
vt 0.276757 0.516859
vt 0.547704 0.727958
vt 0.295552 0.255532
vt 0.815864 0.479564
vt 0.515821 0.482793
vt 0.786334 0.287630
vt 0.802371 0.270987
vt 0.598170 0.271617
vt 0.614239 0.287673
vt 0.248522 0.472574
vt 0.234825 0.284208
vt 0.247695 0.267435
vt 0.614861 0.458497
vt 0.064887 0.284478
vt 0.048184 0.268371
vt 0.049153 0.473432
vt 0.065194 0.457276
vt 0.503264 0.266241
vt 0.487531 0.455195
vt 0.487224 0.282396
vt 0.234981 0.455773
vt 0.303896 0.267098
vt 0.317437 0.283899
vt 0.317592 0.455464
vt 0.304723 0.472237
vt 0.803991 0.728386
vt 0.615826 0.712375
vt 0.787921 0.712331
vt 0.504234 0.471301
vt 0.804296 0.527866
vt 0.787299 0.541507
vt 0.614981 0.541704
vt 0.598067 0.528771
vt 0.625841 0.448848
vt 0.775341 0.298647
vt 0.776082 0.448636
vt 0.599790 0.729017
vt 0.840353 0.231598
vt 0.841410 0.235642
vt 0.836376 0.231576
vt 0.000543 0.733338
vt 0.000003 0.729536
vt 0.010523 0.512983
vt 0.014371 0.513005
vt 0.844844 0.005581
vt 0.849136 0.001419
vt 0.849741 0.005456
vt 0.009415 0.509059
vt 0.551852 0.731843
vt 0.548073 0.732661
vt 0.842509 0.768065
vt 0.843679 0.772119
vt 0.838538 0.768105
vt 0.542854 0.510313
vt 0.538996 0.510358
vt 0.849079 0.999206
vt 0.845073 1.000000
vt 0.539268 0.514874
vt 0.543956 0.514189
vt 0.000565 0.007830
vt 0.004344 0.007012
vt 0.559651 0.231938
vt 0.558482 0.227884
vt 0.563622 0.231898
vt 0.009564 0.229359
vt 0.013422 0.229315
vt 0.553079 0.000794
vt 0.557086 0.000000
vt 0.013150 0.224799
vt 0.008462 0.225483
vt 0.561807 0.768407
vt 0.565785 0.768429
vt 0.551876 0.006333
vt 0.552417 0.010135
vt 0.560750 0.764363
vt 0.541895 0.226690
vt 0.543002 0.230614
vt 0.538046 0.226668
vt 0.557320 0.994420
vt 0.553029 0.998582
vt 0.552424 0.994546
vt 0.844263 0.499388
vt 0.004294 0.734167
vt 0.277613 0.739671
vt 0.841555 0.227524
vt 0.009411 0.516860
vt 0.276734 0.512133
vt 0.849741 0.995177
vt 0.552417 0.728018
vt 0.543962 0.506355
vt 0.557024 0.999428
vt 0.543006 0.222813
vt 0.560605 0.772481
vt 0.557897 0.500615
vt 0.548126 0.005504
vt 0.274803 0.000000
vt 0.275684 0.227539
vt 0.552417 0.004823
vt 0.000000 0.011654
vt 0.008456 0.233317
vt 0.843570 0.763995
vt 0.558591 0.236008
vt 0.592058 0.476469
vt 0.809930 0.475509
vt 0.808032 0.265264
vt 0.592459 0.265926
vt 0.813818 0.259444
vt 0.252823 0.478319
vt 0.251951 0.261642
vt 0.042440 0.262690
vt 0.043466 0.479168
vt 0.509978 0.476982
vt 0.299594 0.261353
vt 0.508952 0.260505
vt 0.300467 0.478030
vt 0.594129 0.734741
vt 0.810102 0.523535
vt 0.809701 0.734078
vt 0.592230 0.524495
vt 0.620450 0.453827
vt 0.781539 0.453643
vt 0.780761 0.293228
vt 0.625361 0.298714
vt 0.619873 0.293262
vt 0.230339 0.450241
vt 0.230187 0.289807
vt 0.070503 0.290062
vt 0.076226 0.446126
vt 0.070779 0.451627
vt 0.481915 0.449610
vt 0.481639 0.288045
vt 0.322079 0.289431
vt 0.322231 0.449865
vt 0.327219 0.444449
vt 0.621400 0.706777
vt 0.782288 0.706741
vt 0.781709 0.546177
vt 0.620621 0.546361
vt 0.626078 0.551368
vt 0.845140 0.000573
vn 0.0000 -1.0000 0.0000
vn 0.0000 1.0000 0.0000
vn 0.0000 0.0000 1.0000
vn -1.0000 0.0000 0.0000
vn 0.0000 -0.6922 0.7217
vn 0.0000 0.0000 -1.0000
vn 1.0000 0.0000 0.0000
vn 0.5785 -0.8157 0.0000
vn 0.0000 -0.8157 -0.5785
vn -0.0000 0.6922 0.7217
vn -0.5785 -0.8157 -0.0000
vn -0.5785 0.8157 0.0000
vn 0.0000 0.8157 -0.5785
vn 0.0000 0.8157 0.5785
vn 0.5785 0.8157 -0.0000
vn 0.0000 0.6922 -0.7217
vn 0.0000 -0.8157 0.5785
vn -0.0000 -0.6922 -0.7217
vn -0.3672 -0.8865 0.2817
vn -0.2817 -0.3672 0.8865
vn -0.8865 -0.2817 0.3672
vn -0.8865 0.3672 0.2817
vn -0.3672 0.2818 0.8864
vn -0.2817 0.8865 0.3672
vn -0.8865 -0.3672 -0.2817
vn -0.3672 -0.2818 -0.8864
vn -0.2817 -0.8865 -0.3672
vn -0.3672 0.8865 -0.2817
vn -0.2817 0.3672 -0.8865
vn -0.8865 0.2817 -0.3672
vn 0.8865 -0.3672 0.2817
vn 0.3672 -0.2818 0.8864
vn 0.2817 -0.8865 0.3672
vn 0.3672 0.8865 0.2817
vn 0.2817 0.3672 0.8865
vn 0.8865 0.2817 0.3672
vn 0.2817 -0.3672 -0.8865
vn 0.8865 -0.2817 -0.3672
vn 0.3672 -0.8865 -0.2817
vn 0.2817 0.8865 -0.3672
vn 0.8865 0.3672 -0.2817
vn 0.3672 0.2817 -0.8865
vn -0.3827 -0.9239 0.0000
vn -0.9239 -0.3827 0.0000
vn -0.3827 0.0000 0.9239
vn -0.9239 0.0000 0.3827
vn -0.3827 0.9239 0.0000
vn -0.9239 0.3827 0.0000
vn -0.3827 0.0000 -0.9239
vn -0.9239 0.0000 -0.3827
vn 0.0000 -0.9239 -0.3827
vn 0.0000 -0.3827 -0.9239
vn 0.0000 0.9239 -0.3827
vn -0.0000 0.3827 -0.9239
vn 0.9239 0.0000 -0.3827
vn 0.3827 0.0000 -0.9239
vn 0.3827 -0.9239 0.0000
vn 0.9239 -0.3827 0.0000
vn 0.3827 0.9239 0.0000
vn 0.9239 0.3827 0.0000
vn 0.3827 0.0000 0.9239
vn 0.9239 0.0000 0.3827
vn 0.0000 -0.9239 0.3827
vn 0.0000 -0.3827 0.9239
vn 0.0000 0.9239 0.3827
vn 0.0000 0.3827 0.9239
vn 0.0000 -0.8242 0.5663
vn 0.0000 -0.9679 0.2513
vn 0.4234 -0.9059 -0.0000
vn 0.1739 -0.9848 -0.0000
vn -0.4235 -0.9059 -0.0000
vn -0.1740 -0.9847 -0.0000
vn 0.0000 -0.9059 -0.4235
vn 0.0000 -0.9847 -0.1740
vn -0.0000 0.8242 0.5663
vn -0.0000 0.9679 0.2513
vn -0.4234 0.9059 -0.0000
vn -0.1739 0.9848 -0.0000
vn 0.4235 0.9059 -0.0000
vn 0.1740 0.9847 -0.0000
vn 0.0000 0.9059 -0.4235
vn 0.0000 0.9847 -0.1740
vn 0.0000 0.9059 0.4235
vn 0.0000 0.9847 0.1740
vn -0.4235 0.9059 0.0000
vn -0.1740 0.9847 0.0000
vn 0.4234 0.9059 0.0000
vn 0.1739 0.9848 0.0000
vn 0.0000 0.9679 -0.2513
vn 0.0000 0.8242 -0.5663
vn 0.0000 -0.9059 0.4235
vn 0.0000 -0.9847 0.1740
vn 0.4235 -0.9059 0.0000
vn 0.1740 -0.9847 0.0000
vn -0.4234 -0.9059 0.0000
vn -0.1739 -0.9848 0.0000
vn -0.0000 -0.9679 -0.2513
vn 0.0000 -0.8242 -0.5663
vn 0.0000 -0.9802 0.1980
vn 0.0000 -0.8543 0.5197
vn 0.1820 -0.9833 0.0000
vn 0.4308 -0.9025 0.0000
vn -0.1816 -0.9834 0.0000
vn -0.4304 -0.9026 0.0000
vn 0.0000 -0.9834 -0.1816
vn 0.0000 -0.9026 -0.4304
vn -0.0000 0.9802 0.1980
vn -0.0000 0.8543 0.5197
vn -0.1820 0.9833 0.0000
vn -0.4308 0.9025 0.0000
vn 0.1816 0.9834 0.0000
vn 0.4304 0.9026 0.0000
vn 0.0000 0.9834 -0.1816
vn 0.0000 0.9026 -0.4304
vn 0.0000 0.9834 0.1816
vn 0.0000 0.9026 0.4304
vn -0.1816 0.9834 -0.0000
vn -0.4304 0.9026 -0.0000
vn 0.1820 0.9833 0.0000
vn 0.4308 0.9025 -0.0000
vn 0.0000 0.8543 -0.5197
vn 0.0000 0.9802 -0.1980
vn 0.0000 -0.9834 0.1816
vn 0.0000 -0.9026 0.4304
vn 0.1816 -0.9834 -0.0000
vn 0.4304 -0.9026 -0.0000
vn -0.1820 -0.9833 0.0000
vn -0.4308 -0.9025 -0.0000
vn 0.0000 -0.8543 -0.5197
vn 0.0000 -0.9802 -0.1980
vn -0.2817 -0.8865 0.3672
vn -0.3672 -0.2817 0.8865
vn -0.8865 -0.3672 0.2817
vn -0.8865 0.2817 0.3672
vn -0.2817 0.3672 0.8865
vn -0.3672 0.8865 0.2817
vn -0.8865 -0.2817 -0.3672
vn -0.2817 -0.3672 -0.8865
vn -0.3672 -0.8865 -0.2817
vn -0.2817 0.8865 -0.3672
vn -0.3672 0.2817 -0.8865
vn -0.8865 0.3672 -0.2817
vn 0.8865 -0.2817 0.3672
vn 0.2817 -0.3672 0.8865
vn 0.3672 -0.8865 0.2817
vn 0.2817 0.8865 0.3672
vn 0.3672 0.2817 0.8865
vn 0.8865 0.3672 0.2817
vn 0.3672 -0.2818 -0.8864
vn 0.8865 -0.3672 -0.2817
vn 0.2817 -0.8865 -0.3672
vn 0.3672 0.8865 -0.2817
vn 0.8865 0.2817 -0.3672
vn 0.2817 0.3672 -0.8865
usemtl None
s off
f 58/1/1 106/2/1 115/3/1
f 45/4/1 106/2/1 17/5/1
f 64/6/1 75/7/1 72/8/1
f 1/9/1 75/7/1 31/10/1
f 133/11/2 138/12/2 129/13/2
f 145/14/2 150/15/2 141/16/2
f 157/17/1 162/18/1 153/19/1
f 64/6/1 108/20/1 45/4/1
f 37/21/3 2/22/3 30/23/3
f 67/24/2 99/25/2 61/26/2
f 67/24/2 91/27/2 36/28/2
f 36/28/2 87/29/2 10/30/2
f 8/31/4 57/32/4 3/33/4
f 73/34/5 118/35/5 69/36/5
f 23/37/6 43/38/6 16/39/6
f 61/26/2 87/29/2 84/40/2
f 51/41/7 63/42/7 44/43/7
f 66/44/7 29/45/7 63/42/7
f 22/46/2 94/47/2 50/48/2
f 61/26/2 82/49/2 67/24/2
f 58/1/1 111/50/1 64/6/1
f 60/51/4 15/52/4 57/32/4
f 67/24/2 94/47/2 103/53/2
f 64/6/1 70/54/1 58/1/1
f 61/26/2 96/55/2 22/46/2
f 69/36/8 127/56/8 78/57/8
f 76/58/9 127/56/9 123/59/9
f 85/60/10 130/61/10 81/62/10
f 73/34/11 123/59/11 120/63/11
f 81/62/12 139/64/12 90/65/12
f 88/66/13 139/64/13 135/67/13
f 93/68/14 144/69/14 142/70/14
f 85/60/15 135/67/15 132/71/15
f 102/72/12 142/70/12 151/73/12
f 102/72/16 147/74/16 100/75/16
f 105/76/17 156/77/17 154/78/17
f 100/75/15 144/69/15 97/79/15
f 114/80/8 154/78/8 163/81/8
f 114/80/18 159/82/18 112/83/18
f 121/84/1 126/85/1 117/86/1
f 112/83/11 156/77/11 109/87/11
f 1/9/19 5/88/19 7/89/19
f 2/22/20 5/88/20 4/90/20
f 3/33/21 5/91/21 6/92/21
f 8/31/22 12/93/22 14/94/22
f 9/95/23 12/96/23 11/97/23
f 10/30/24 12/93/24 13/98/24
f 15/52/25 19/99/25 21/100/25
f 16/39/26 19/101/26 18/102/26
f 17/5/27 19/101/27 20/103/27
f 22/46/28 26/104/28 28/105/28
f 23/37/29 26/106/29 25/107/29
f 24/108/30 26/104/30 27/109/30
f 29/45/31 33/110/31 35/111/31
f 30/23/32 33/112/32 32/113/32
f 31/10/33 33/112/33 34/114/33
f 36/28/34 40/115/34 42/116/34
f 37/21/35 40/117/35 39/118/35
f 38/119/36 40/115/36 41/120/36
f 43/38/37 47/121/37 49/122/37
f 44/43/38 47/123/38 46/124/38
f 45/4/39 47/121/39 48/125/39
f 50/48/40 54/126/40 56/127/40
f 51/41/41 54/126/41 53/128/41
f 52/129/42 54/130/42 55/131/42
f 1/9/43 59/132/43 58/1/43
f 7/133/44 57/32/44 59/134/44
f 9/95/45 6/135/45 2/22/45
f 11/136/46 3/33/46 6/92/46
f 22/46/47 62/137/47 61/26/47
f 28/105/48 60/51/48 62/137/48
f 16/39/49 27/138/49 23/37/49
f 18/139/50 24/108/50 27/109/50
f 17/5/51 49/122/51 45/4/51
f 20/103/52 43/38/52 49/122/52
f 50/48/53 25/140/53 22/46/53
f 56/141/54 23/37/54 25/107/54
f 44/43/55 55/142/55 51/41/55
f 46/143/56 52/129/56 55/131/56
f 45/4/57 65/144/57 64/6/57
f 48/145/58 63/42/58 65/146/58
f 36/28/59 68/147/59 67/24/59
f 42/116/60 66/44/60 68/147/60
f 30/23/61 41/148/61 37/21/61
f 32/149/62 38/119/62 41/120/62
f 31/10/63 4/90/63 1/9/63
f 4/90/64 30/23/64 2/22/64
f 10/30/65 39/150/65 36/28/65
f 39/118/66 9/95/66 37/21/66
f 58/1/43 21/151/43 17/5/43
f 21/100/44 57/32/44 15/52/44
f 61/26/47 14/94/47 10/30/47
f 14/94/48 60/51/48 8/31/48
f 64/6/57 35/152/57 31/10/57
f 35/111/58 63/42/58 29/45/58
f 67/24/59 53/128/59 50/48/59
f 68/147/60 51/41/60 53/128/60
f 69/36/67 74/153/67 73/34/67
f 71/154/68 72/8/68 74/153/68
f 78/57/69 71/154/69 69/36/69
f 80/155/70 70/54/70 71/154/70
f 76/58/71 74/153/71 77/156/71
f 77/156/72 72/8/72 75/7/72
f 76/58/73 80/155/73 78/57/73
f 80/155/74 75/7/74 79/157/74
f 81/62/75 86/158/75 85/60/75
f 83/159/76 84/40/76 86/158/76
f 90/65/77 83/159/77 81/62/77
f 92/160/78 82/49/78 83/159/78
f 88/66/79 86/158/79 89/161/79
f 89/161/80 84/40/80 87/29/80
f 88/66/81 92/160/81 90/65/81
f 92/160/82 87/29/82 91/27/82
f 93/68/83 98/162/83 97/79/83
f 98/162/84 94/47/84 96/55/84
f 93/68/85 104/163/85 95/164/85
f 95/164/86 103/53/86 94/47/86
f 97/79/87 101/165/87 100/75/87
f 98/162/88 99/25/88 101/165/88
f 103/53/89 101/165/89 99/25/89
f 101/165/90 102/72/90 100/75/90
f 105/76/91 110/166/91 109/87/91
f 110/166/92 106/2/92 108/20/92
f 105/76/93 116/167/93 107/168/93
f 107/168/94 115/3/94 106/2/94
f 109/87/95 113/169/95 112/83/95
f 110/166/96 111/50/96 113/169/96
f 115/3/97 113/169/97 111/50/97
f 113/169/98 114/80/98 112/83/98
f 117/86/99 122/170/99 121/84/99
f 119/171/100 120/63/100 122/170/100
f 126/85/101 119/171/101 117/86/101
f 128/172/102 118/35/102 119/171/102
f 124/173/103 122/170/103 125/174/103
f 125/174/104 120/63/104 123/59/104
f 124/173/105 128/172/105 126/85/105
f 125/174/106 127/56/106 128/172/106
f 129/13/107 134/175/107 133/11/107
f 131/176/108 132/71/108 134/175/108
f 138/12/109 131/176/109 129/13/109
f 140/177/110 130/61/110 131/176/110
f 136/178/111 134/175/111 137/179/111
f 137/179/112 132/71/112 135/67/112
f 136/178/113 140/177/113 138/12/113
f 137/179/114 139/64/114 140/177/114
f 141/16/115 146/180/115 145/14/115
f 143/181/116 144/69/116 146/180/116
f 141/16/117 152/182/117 143/181/117
f 143/181/118 151/73/118 142/70/118
f 145/14/119 149/183/119 148/184/119
f 146/180/120 147/74/120 149/183/120
f 151/73/121 149/183/121 147/74/121
f 152/182/122 148/184/122 149/183/122
f 153/19/123 158/185/123 157/17/123
f 155/186/124 156/77/124 158/185/124
f 153/19/125 164/187/125 155/186/125
f 155/186/126 163/81/126 154/78/126
f 157/17/127 161/188/127 160/189/127
f 158/185/128 159/82/128 161/188/128
f 163/81/129 161/188/129 159/82/129
f 164/187/130 160/189/130 161/188/130
f 58/1/1 79/157/1 1/9/1
f 58/1/1 17/5/1 106/2/1
f 45/4/1 108/20/1 106/2/1
f 64/6/1 31/10/1 75/7/1
f 1/9/1 79/157/1 75/7/1
f 133/11/2 136/178/2 138/12/2
f 145/14/2 148/184/2 150/15/2
f 157/17/1 160/189/1 162/18/1
f 64/6/1 111/50/1 108/20/1
f 37/21/3 9/95/3 2/22/3
f 67/24/2 103/53/2 99/25/2
f 67/24/2 82/49/2 91/27/2
f 36/28/2 91/27/2 87/29/2
f 8/31/4 60/51/4 57/32/4
f 73/34/5 120/63/5 118/35/5
f 23/37/6 52/129/6 43/38/6
f 61/26/2 10/30/2 87/29/2
f 51/41/7 66/44/7 63/42/7
f 66/44/7 38/119/7 29/45/7
f 22/46/2 96/55/2 94/47/2
f 61/26/2 84/40/2 82/49/2
f 58/1/1 115/3/1 111/50/1
f 60/51/4 24/108/4 15/52/4
f 67/24/2 50/48/2 94/47/2
f 64/6/1 72/8/1 70/54/1
f 61/26/2 99/25/2 96/55/2
f 69/36/8 118/35/8 127/56/8
f 76/58/9 78/57/9 127/56/9
f 85/60/10 132/71/10 130/61/10
f 73/34/11 76/58/11 123/59/11
f 81/62/12 130/61/12 139/64/12
f 88/66/13 90/65/13 139/64/13
f 93/68/14 97/79/14 144/69/14
f 85/60/15 88/66/15 135/67/15
f 102/72/12 93/68/12 142/70/12
f 102/72/16 151/73/16 147/74/16
f 105/76/17 109/87/17 156/77/17
f 100/75/15 147/74/15 144/69/15
f 114/80/8 105/76/8 154/78/8
f 114/80/18 163/81/18 159/82/18
f 121/84/1 124/173/1 126/85/1
f 112/83/11 159/82/11 156/77/11
f 1/9/131 4/90/131 5/88/131
f 2/22/132 6/135/132 5/88/132
f 3/33/133 7/133/133 5/91/133
f 8/31/134 11/136/134 12/93/134
f 9/95/135 13/190/135 12/96/135
f 10/30/136 14/94/136 12/93/136
f 15/52/137 18/139/137 19/99/137
f 16/39/138 20/103/138 19/101/138
f 17/5/139 21/151/139 19/101/139
f 22/46/140 25/140/140 26/104/140
f 23/37/141 27/138/141 26/106/141
f 24/108/142 28/105/142 26/104/142
f 29/45/143 32/149/143 33/110/143
f 30/23/144 34/114/144 33/112/144
f 31/10/145 35/152/145 33/112/145
f 36/28/146 39/150/146 40/115/146
f 37/21/147 41/148/147 40/117/147
f 38/119/148 42/116/148 40/115/148
f 43/38/149 46/143/149 47/121/149
f 44/43/150 48/145/150 47/123/150
f 45/4/151 49/122/151 47/121/151
f 50/48/152 53/128/152 54/126/152
f 51/41/153 55/142/153 54/126/153
f 52/129/154 56/141/154 54/130/154
f 1/9/43 7/89/43 59/132/43
f 7/133/44 3/33/44 57/32/44
f 9/95/45 11/97/45 6/135/45
f 11/136/46 8/31/46 3/33/46
f 22/46/47 28/105/47 62/137/47
f 28/105/48 24/108/48 60/51/48
f 16/39/49 18/102/49 27/138/49
f 18/139/50 15/52/50 24/108/50
f 17/5/51 20/103/51 49/122/51
f 20/103/52 16/39/52 43/38/52
f 50/48/53 56/127/53 25/140/53
f 56/141/54 52/129/54 23/37/54
f 44/43/55 46/124/55 55/142/55
f 46/143/56 43/38/56 52/129/56
f 45/4/57 48/125/57 65/144/57
f 48/145/58 44/43/58 63/42/58
f 36/28/59 42/116/59 68/147/59
f 42/116/60 38/119/60 66/44/60
f 30/23/61 32/113/61 41/148/61
f 32/149/62 29/45/62 38/119/62
f 31/10/63 34/114/63 4/90/63
f 4/90/64 34/114/64 30/23/64
f 10/30/65 13/98/65 39/150/65
f 39/118/66 13/190/66 9/95/66
f 58/1/43 59/132/43 21/151/43
f 21/100/44 59/134/44 57/32/44
f 61/26/47 62/137/47 14/94/47
f 14/94/48 62/137/48 60/51/48
f 64/6/57 65/144/57 35/152/57
f 35/111/58 65/146/58 63/42/58
f 67/24/59 68/147/59 53/128/59
f 68/147/60 66/44/60 51/41/60
f 69/36/67 71/154/67 74/153/67
f 71/154/68 70/54/68 72/8/68
f 78/57/93 80/155/93 71/154/93
f 80/155/94 79/157/94 70/54/94
f 76/58/95 73/34/95 74/153/95
f 77/156/96 74/153/96 72/8/96
f 76/58/73 77/156/73 80/155/73
f 80/155/74 77/156/74 75/7/74
f 81/62/75 83/159/75 86/158/75
f 83/159/76 82/49/76 84/40/76
f 90/65/85 92/160/85 83/159/85
f 92/160/86 91/27/86 82/49/86
f 88/66/87 85/60/87 86/158/87
f 89/161/88 86/158/88 84/40/88
f 88/66/81 89/161/81 92/160/81
f 92/160/82 89/161/82 87/29/82
f 93/68/83 95/164/83 98/162/83
f 98/162/84 95/164/84 94/47/84
f 93/68/77 102/72/77 104/163/77
f 95/164/78 104/163/78 103/53/78
f 97/79/79 98/162/79 101/165/79
f 98/162/80 96/55/80 99/25/80
f 103/53/89 104/163/89 101/165/89
f 101/165/90 104/163/90 102/72/90
f 105/76/91 107/168/91 110/166/91
f 110/166/92 107/168/92 106/2/92
f 105/76/69 114/80/69 116/167/69
f 107/168/70 116/167/70 115/3/70
f 109/87/71 110/166/71 113/169/71
f 110/166/72 108/20/72 111/50/72
f 115/3/97 116/167/97 113/169/97
f 113/169/98 116/167/98 114/80/98
f 117/86/99 119/171/99 122/170/99
f 119/171/100 118/35/100 120/63/100
f 126/85/125 128/172/125 119/171/125
f 128/172/126 127/56/126 118/35/126
f 124/173/127 121/84/127 122/170/127
f 125/174/128 122/170/128 120/63/128
f 124/173/105 125/174/105 128/172/105
f 125/174/106 123/59/106 127/56/106
f 129/13/107 131/176/107 134/175/107
f 131/176/108 130/61/108 132/71/108
f 138/12/117 140/177/117 131/176/117
f 140/177/118 139/64/118 130/61/118
f 136/178/119 133/11/119 134/175/119
f 137/179/120 134/175/120 132/71/120
f 136/178/113 137/179/113 140/177/113
f 137/179/114 135/67/114 139/64/114
f 141/16/115 143/181/115 146/180/115
f 143/181/116 142/70/116 144/69/116
f 141/16/109 150/15/109 152/182/109
f 143/181/110 152/182/110 151/73/110
f 145/14/111 146/180/111 149/183/111
f 146/180/112 144/69/112 147/74/112
f 151/73/121 152/182/121 149/183/121
f 152/182/122 150/15/122 148/184/122
f 153/19/123 155/186/123 158/185/123
f 155/186/124 154/78/124 156/77/124
f 153/19/101 162/18/101 164/187/101
f 155/186/102 164/187/102 163/81/102
f 157/17/103 158/185/103 161/188/103
f 158/185/104 156/77/104 159/82/104
f 163/81/129 164/187/129 161/188/129
f 164/187/130 162/18/130 160/189/130
f 58/1/1 70/54/1 79/157/1
