# Blender v3.0.0 Alpha OBJ File: ''
# www.blender.org
mtllib lopsided.mtl
o Cube
v -0.509359 -0.417379 1.061592
v -0.509359 -0.383598 1.095374
v -0.543140 -0.383598 1.061592
v -0.509359 -0.407485 1.085479
v -0.528863 -0.403102 1.081096
v -0.533246 -0.383598 1.085479
v -0.533246 -0.407485 1.061593
v -0.509359 0.383598 1.095374
v -0.509359 0.417379 1.061592
v -0.543140 0.383598 1.061592
v -0.509359 0.407485 1.085479
v -0.528863 0.403102 1.081096
v -0.533246 0.407485 1.061593
v -0.533246 0.383598 1.085479
v -0.509359 -0.417379 -0.038508
v -0.543140 -0.383598 -0.038508
v -0.563476 -0.383598 -0.099263
v -0.526302 -0.417379 -0.106070
v -0.533246 -0.407485 -0.038508
v -0.538558 -0.407549 -0.071358
v -0.549097 -0.383598 -0.070296
v -0.550476 -0.407485 -0.098455
v -0.514334 -0.417379 -0.077012
v -0.509359 0.417379 -0.038508
v -0.526302 0.417379 -0.106070
v -0.563476 0.383598 -0.099263
v -0.543140 0.383598 -0.038508
v -0.514334 0.417379 -0.077012
v -0.538558 0.407549 -0.071358
v -0.550476 0.407485 -0.098455
v -0.549097 0.383598 -0.070296
v -0.533246 0.407485 -0.038508
v 0.509359 -0.417379 1.061592
v 0.543140 -0.383598 1.061592
v 0.509359 -0.383598 1.095374
v 0.533246 -0.407485 1.061592
v 0.528862 -0.403102 1.081096
v 0.533246 -0.383598 1.085479
v 0.509359 -0.407485 1.085479
v 0.509359 0.417379 1.061592
v 0.509359 0.383598 1.095374
v 0.543140 0.383598 1.061592
v 0.509359 0.407485 1.085479
v 0.528863 0.403102 1.081096
v 0.533246 0.383598 1.085479
v 0.533246 0.407485 1.061593
v 0.526302 -0.417379 -0.106070
v 0.563476 -0.383598 -0.099263
v 0.543140 -0.383598 -0.038508
v 0.509359 -0.417379 -0.038508
v 0.550476 -0.407485 -0.098455
v 0.538558 -0.407549 -0.071358
v 0.549097 -0.383598 -0.070296
v 0.533246 -0.407485 -0.038508
v 0.514334 -0.417379 -0.077012
v 0.526302 0.417379 -0.106070
v 0.509359 0.417379 -0.038508
v 0.543140 0.383598 -0.038508
v 0.563476 0.383598 -0.099263
v 0.514334 0.417379 -0.077012
v 0.538558 0.407549 -0.071358
v 0.533246 0.407485 -0.038508
v 0.549097 0.383598 -0.070296
v 0.550476 0.407485 -0.098455
v -0.563476 0.383598 -1.353177
v -0.526302 0.417379 -1.346370
v -0.509359 0.383598 -1.380151
v -0.551886 0.407485 -1.349773
v -0.536741 0.403102 -1.367312
v -0.513619 0.407485 -1.368847
v -0.539905 0.383598 -1.373660
v -0.563476 -0.383598 -1.353177
v -0.509359 -0.383598 -1.380151
v -0.526302 -0.417379 -1.346370
v -0.539905 -0.383598 -1.373660
v -0.536741 -0.403102 -1.367312
v -0.513619 -0.407485 -1.368847
v -0.551886 -0.407485 -1.349773
v 0.526302 -0.417379 -1.346370
v 0.509359 -0.383598 -1.380151
v 0.563476 -0.383598 -1.353177
v 0.513619 -0.407485 -1.368847
v 0.536741 -0.403102 -1.367312
v 0.539905 -0.383598 -1.373660
v 0.551886 -0.407485 -1.349773
v 0.526302 0.417379 -1.346370
v 0.563476 0.383598 -1.353177
v 0.509359 0.383598 -1.380151
v 0.551886 0.407485 -1.349773
v 0.536741 0.403102 -1.367312
v 0.539905 0.383598 -1.373660
v 0.513619 0.407485 -1.368847
v 0.644597 0.417379 -0.262978
v 0.692035 0.383598 -0.269785
v 0.712371 0.383598 -0.330540
v 0.678590 0.417379 -0.330540
v 0.673903 0.407485 -0.262169
v 0.694460 0.407549 -0.297808
v 0.706415 0.383598 -0.298753
v 0.702477 0.407485 -0.330540
v 0.668661 0.417379 -0.301504
v 0.644597 0.417379 -1.189462
v 0.678590 0.417379 -1.121900
v 0.712371 0.383598 -1.121900
v 0.692035 0.383598 -1.182655
v 0.668661 0.417379 -1.150936
v 0.694460 0.407549 -1.154632
v 0.702477 0.407485 -1.121900
v 0.706415 0.383598 -1.153687
v 0.673903 0.407485 -1.190271
v -0.644597 0.417379 -1.189462
v -0.692035 0.383598 -1.182655
v -0.712371 0.383598 -1.121900
v -0.678590 0.417379 -1.121900
v -0.673903 0.407485 -1.190271
v -0.694460 0.407549 -1.154632
v -0.706415 0.383598 -1.153687
v -0.702477 0.407485 -1.121900
v -0.668661 0.417379 -1.150936
v -0.644597 0.417379 -0.262978
v -0.678590 0.417379 -0.330540
v -0.712371 0.383598 -0.330540
v -0.692035 0.383598 -0.269785
v -0.668661 0.417379 -0.301504
v -0.694460 0.407549 -0.297808
v -0.702477 0.407485 -0.330540
v -0.706415 0.383598 -0.298753
v -0.673903 0.407485 -0.262169
v -0.692035 -0.383598 -1.182655
v -0.644597 -0.417379 -1.189462
v -0.678590 -0.417379 -1.121900
v -0.712371 -0.383598 -1.121900
v -0.673903 -0.407485 -1.190271
v -0.694460 -0.407549 -1.154632
v -0.668661 -0.417379 -1.150936
v -0.702477 -0.407485 -1.121900
v -0.706415 -0.383598 -1.153687
v -0.692035 -0.383598 -0.269785
v -0.712371 -0.383598 -0.330540
v -0.678590 -0.417379 -0.330540
v -0.644597 -0.417379 -0.262978
v -0.706415 -0.383598 -0.298753
v -0.694460 -0.407549 -0.297808
v -0.702477 -0.407485 -0.330540
v -0.668661 -0.417379 -0.301504
v -0.673903 -0.407485 -0.262169
v 0.692035 -0.383598 -0.269785
v 0.644597 -0.417379 -0.262978
v 0.678590 -0.417379 -0.330540
v 0.712371 -0.383598 -0.330540
v 0.673903 -0.407485 -0.262169
v 0.694460 -0.407549 -0.297808
v 0.668661 -0.417379 -0.301504
v 0.702477 -0.407485 -0.330540
v 0.706415 -0.383598 -0.298753
v 0.692035 -0.383598 -1.182655
v 0.712371 -0.383598 -1.121900
v 0.678590 -0.417379 -1.121900
v 0.644597 -0.417379 -1.189462
v 0.706415 -0.383598 -1.153687
v 0.694460 -0.407549 -1.154632
v 0.702477 -0.407485 -1.121900
v 0.668661 -0.417379 -1.150936
v 0.673903 -0.407485 -1.190271
vt 0.319193 1.489795
vt 0.319193 1.258033
vt 0.626937 1.258034
vt 0.626936 1.489795
vt -0.063139 0.557605
vt -0.452591 0.557605
vt -0.416855 0.510205
vt -0.098875 0.510205
vt -0.053955 1.258033
vt -0.053955 1.489795
vt -0.118467 1.489795
vt -0.118467 1.258034
vt -0.103993 -0.157467
vt -0.411737 -0.157467
vt -0.411736 -0.489795
vt -0.103993 -0.489795
vt 0.647346 1.489795
vt 0.647346 1.258033
vt 0.979674 1.258034
vt 0.979674 1.489795
vt 1.000084 1.489795
vt 1.000084 1.258034
vt 1.064596 1.258033
vt 1.064596 1.489795
vt -0.452591 0.190224
vt -0.063139 0.190224
vt -0.098875 0.237624
vt -0.416855 0.237624
vt -0.411737 0.489795
vt -0.411737 0.258034
vt -0.103993 0.258034
vt -0.103993 0.489795
vt -0.462859 -0.069247
vt -0.052870 -0.069247
vt -0.052870 0.169814
vt -0.462860 0.169814
vt -0.398348 1.258033
vt -0.398347 1.489795
vt -0.462860 1.489795
vt -0.462860 1.258034
vt -0.416855 -0.137057
vt -0.098875 -0.137057
vt -0.063139 -0.089657
vt -0.452591 -0.089657
vt 1.344477 1.489795
vt 1.344477 1.258033
vt 1.408989 1.258033
vt 1.408989 1.489795
vt 1.085006 1.489795
vt 1.085006 1.258033
vt 1.324067 1.258034
vt 1.324067 1.489795
vt -0.098875 0.884886
vt -0.416855 0.884886
vt -0.452590 0.837486
vt -0.063139 0.837486
vt -0.052870 0.817076
vt -0.462859 0.817076
vt -0.462859 0.578015
vt -0.052870 0.578015
vt -0.033545 1.489795
vt -0.033545 1.258033
vt 0.298783 1.258033
vt 0.298783 1.489795
vt -0.138877 1.258034
vt -0.138877 1.489795
vt -0.377938 1.489795
vt -0.377938 1.258034
vt -0.411736 1.237623
vt -0.411736 1.247828
vt -0.417628 1.247828
vt -0.421941 1.237623
vt 0.637141 1.489795
vt 0.637141 1.495687
vt 0.626936 1.500000
vt 0.647346 1.500000
vt 0.641454 1.500000
vt 0.626937 1.247828
vt 0.632828 1.247828
vt 0.637141 1.258033
vt -0.421941 -0.489795
vt -0.421941 -0.495687
vt -0.411736 -0.500000
vt 0.637141 1.252141
vt 0.647346 1.247828
vt -0.411736 0.905296
vt -0.421941 0.905295
vt -0.421941 0.895372
vt -0.413239 0.895091
vt 0.989879 1.489795
vt 0.989879 1.497030
vt 0.979674 1.500000
vt 0.997525 1.500000
vt 0.989879 1.500000
vt -0.420557 0.895091
vt -0.426544 0.888985
vt -0.413239 -0.147262
vt -0.420557 -0.147262
vt -0.421941 -0.157467
vt -0.426544 -0.141157
vt -0.421941 -0.147262
vt 0.989879 1.258034
vt 0.989879 1.250798
vt 0.997525 1.247829
vt 0.979674 1.247829
vt 0.989598 1.247829
vt -0.103993 1.237624
vt -0.093788 1.237624
vt -0.093788 1.243515
vt -0.103993 1.247828
vt 0.308988 1.489795
vt 0.308988 1.495687
vt 0.298783 1.500000
vt 0.319193 1.500000
vt 0.313301 1.500000
vt -0.103993 -0.500000
vt -0.098101 -0.500000
vt -0.093788 -0.489795
vt 0.308988 1.258033
vt 0.308988 1.252141
vt 0.319193 1.247828
vt 0.298783 1.247828
vt 0.304675 1.247828
vt -0.089185 0.888985
vt -0.093788 0.895090
vt -0.102490 0.895090
vt -0.043750 1.489795
vt -0.043750 1.497030
vt -0.051396 1.500000
vt -0.033545 1.500000
vt -0.043468 1.500000
vt -0.103993 0.905295
vt -0.095172 0.895090
vt -0.093788 0.905295
vt -0.102490 -0.147262
vt -0.095173 -0.147262
vt -0.089186 -0.141157
vt -0.093788 -0.157467
vt -0.093788 -0.147543
vt -0.043750 1.258033
vt -0.043750 1.250798
vt -0.033545 1.247828
vt -0.051396 1.247828
vt -0.043750 1.247828
vt 1.410276 1.247828
vt 1.417261 1.247828
vt 1.419194 1.258033
vt -0.413024 0.247829
vt -0.420008 0.247829
vt -0.427310 0.240708
vt -0.421942 0.258034
vt -0.421942 0.252142
vt 1.419194 1.489795
vt 1.419194 1.495687
vt 1.410276 1.500000
vt -0.413024 0.500000
vt -0.420008 0.500000
vt -0.421942 0.489795
vt -0.427310 0.507121
vt -0.423105 0.501544
vt -0.102706 0.500000
vt -0.095721 0.500000
vt -0.088420 0.507121
vt -0.093788 0.489795
vt -0.093788 0.495687
vt -0.464146 1.500000
vt -0.471131 1.500000
vt -0.473064 1.489795
vt -0.088420 0.240708
vt -0.092624 0.246285
vt -0.102706 0.247829
vt -0.473065 1.258034
vt -0.473065 1.252142
vt -0.464147 1.247829
vt -0.095721 0.247829
vt -0.093788 0.258034
vt -0.051900 -0.091700
vt -0.044474 -0.081851
vt -0.055870 -0.079452
vt -0.128672 1.258034
vt -0.128672 1.250798
vt -0.113332 1.247829
vt -0.138877 1.247829
vt -0.128989 1.247829
vt -0.048076 -0.079452
vt -0.042665 -0.069247
vt -0.055870 0.180019
vt -0.048076 0.180019
vt -0.051900 0.192267
vt -0.042665 0.169814
vt -0.042665 0.179702
vt -0.388143 1.258034
vt -0.388143 1.250798
vt -0.377938 1.247829
vt -0.403482 1.247829
vt -0.391147 1.247829
vt -0.463830 0.192267
vt -0.471256 0.182418
vt -0.459860 0.180019
vt 1.334272 1.258034
vt 1.334272 1.250798
vt 1.349611 1.247829
vt 1.324067 1.247829
vt 1.333955 1.247829
vt -0.467654 0.180019
vt -0.473065 0.169814
vt -0.459860 -0.079452
vt -0.467653 -0.079452
vt -0.463830 -0.091701
vt -0.473064 -0.069247
vt -0.473064 -0.079135
vt 1.074801 1.258033
vt 1.074801 1.250798
vt 1.085006 1.247828
vt 1.059462 1.247828
vt 1.071797 1.247828
vt 1.349611 1.500000
vt 1.337276 1.500000
vt 1.334272 1.489795
vt -0.459860 0.567810
vt -0.467653 0.567810
vt -0.463830 0.555561
vt -0.473064 0.578015
vt -0.473064 0.568127
vt 1.334272 1.497030
vt 1.324067 1.500000
vt 1.074801 1.489795
vt 1.074801 1.497030
vt 1.059462 1.500000
vt 1.085006 1.500000
vt 1.075118 1.500000
vt -0.459860 0.827281
vt -0.467653 0.827281
vt -0.473064 0.817076
vt -0.463830 0.839529
vt -0.471256 0.829680
vt -0.113332 1.500000
vt -0.125667 1.500000
vt -0.128672 1.489795
vt -0.055870 0.827281
vt -0.048076 0.827281
vt -0.051900 0.839529
vt -0.042665 0.817076
vt -0.042665 0.826964
vt -0.128672 1.497030
vt -0.138877 1.500000
vt -0.388143 1.489795
vt -0.388143 1.497030
vt -0.403482 1.500000
vt -0.377938 1.500000
vt -0.387826 1.500000
vt -0.055870 0.567810
vt -0.048076 0.567810
vt -0.042665 0.578015
vt -0.051900 0.555561
vt -0.044474 0.565411
vn 0.0000 0.0000 1.0000
vn 0.0000 -1.0000 -0.0000
vn 0.7985 0.0000 0.6020
vn 0.0000 1.0000 0.0000
vn -1.0000 0.0000 0.0000
vn -0.7985 0.0000 0.6020
vn 0.0000 0.0000 -1.0000
vn 0.7985 0.0000 -0.6020
vn -0.7985 0.0000 -0.6020
vn 1.0000 0.0000 0.0000
vn -0.3251 -0.8881 0.3251
vn -0.3251 -0.3251 0.8881
vn -0.8881 -0.3251 0.3251
vn -0.3251 0.3251 0.8881
vn -0.3251 0.8881 0.3251
vn -0.8881 0.3251 0.3251
vn -0.3733 -0.9261 0.0546
vn -0.9067 -0.3908 0.1585
vn -0.8265 -0.4087 0.3872
vn -0.3396 -0.9296 0.1434
vn -0.3733 0.9261 0.0546
vn -0.3396 0.9296 0.1434
vn -0.8265 0.4087 0.3872
vn -0.9067 0.3908 0.1585
vn 0.3251 -0.8881 0.3251
vn 0.8881 -0.3251 0.3251
vn 0.3251 -0.3251 0.8881
vn 0.3251 0.8881 0.3251
vn 0.3251 0.3251 0.8881
vn 0.8881 0.3251 0.3251
vn 0.3396 -0.9296 0.1434
vn 0.8265 -0.4087 0.3872
vn 0.9067 -0.3908 0.1585
vn 0.3733 -0.9261 0.0546
vn 0.3396 0.9296 0.1434
vn 0.3733 0.9261 0.0546
vn 0.9067 0.3908 0.1585
vn 0.8265 0.4087 0.3872
vn -0.6300 0.3679 -0.6839
vn -0.2324 0.8536 -0.4662
vn -0.1669 0.3679 -0.9148
vn -0.6300 -0.3679 -0.6839
vn -0.1669 -0.3679 -0.9148
vn -0.2324 -0.8536 -0.4662
vn 0.2324 -0.8536 -0.4662
vn 0.1669 -0.3679 -0.9148
vn 0.6300 -0.3679 -0.6839
vn 0.2324 0.8536 -0.4662
vn 0.6300 0.3679 -0.6839
vn 0.1669 0.3679 -0.9148
vn 0.3169 0.9289 0.1914
vn 0.7965 0.4238 0.4312
vn 0.8939 0.4045 0.1932
vn 0.3603 0.9270 0.1037
vn 0.3169 0.9289 -0.1914
vn 0.3603 0.9270 -0.1037
vn 0.8939 0.4045 -0.1932
vn 0.7965 0.4238 -0.4312
vn -0.3169 0.9289 -0.1914
vn -0.7965 0.4238 -0.4312
vn -0.8939 0.4045 -0.1932
vn -0.3603 0.9270 -0.1037
vn -0.3169 0.9289 0.1914
vn -0.3603 0.9270 0.1037
vn -0.8939 0.4045 0.1932
vn -0.7965 0.4238 0.4312
vn -0.7965 -0.4238 -0.4312
vn -0.3169 -0.9289 -0.1914
vn -0.3603 -0.9270 -0.1037
vn -0.8939 -0.4045 -0.1932
vn -0.7965 -0.4238 0.4312
vn -0.8939 -0.4045 0.1932
vn -0.3603 -0.9270 0.1037
vn -0.3169 -0.9289 0.1914
vn 0.7965 -0.4238 0.4312
vn 0.3169 -0.9289 0.1914
vn 0.3603 -0.9270 0.1037
vn 0.8939 -0.4045 0.1932
vn 0.7965 -0.4238 -0.4312
vn 0.8939 -0.4045 -0.1932
vn 0.3603 -0.9270 -0.1037
vn 0.3169 -0.9289 -0.1914
vn -0.3827 -0.9239 -0.0000
vn -0.9239 -0.3827 -0.0000
vn -0.3827 0.0000 0.9239
vn -0.9239 0.0000 0.3827
vn -0.3827 0.9239 -0.0000
vn -0.9239 0.3827 -0.0000
vn -0.8957 0.0000 0.4446
vn -0.9829 0.0000 0.1842
vn 0.9829 0.0000 0.1842
vn 0.8957 0.0000 0.4446
vn 0.3827 -0.9239 0.0000
vn 0.9239 -0.3827 0.0000
vn 0.3827 0.9239 -0.0000
vn 0.9239 0.3827 -0.0000
vn 0.3827 -0.0000 0.9239
vn 0.9239 -0.0000 0.3827
vn 0.0000 -0.9239 0.3827
vn 0.0000 -0.3827 0.9239
vn 0.0000 0.9239 0.3827
vn 0.0000 0.3827 0.9239
vn -0.2078 0.0000 -0.9782
vn -0.6559 0.0000 -0.7548
vn 0.0000 -0.9152 -0.4029
vn 0.0000 -0.4278 -0.9039
vn 0.0000 0.9153 -0.4029
vn 0.0000 0.4278 -0.9039
vn 0.6559 0.0000 -0.7548
vn 0.2078 0.0000 -0.9782
vn 0.7284 0.4044 -0.5531
vn 0.3132 0.9194 -0.2379
vn -0.7377 0.3827 0.5562
vn -0.3056 0.9239 0.2304
vn -0.3056 -0.9239 0.2304
vn -0.7377 -0.3827 0.5562
vn 0.3132 -0.9194 -0.2379
vn 0.7284 -0.4044 -0.5531
vn 0.7377 0.3827 0.5562
vn 0.3056 0.9239 0.2304
vn -0.7284 0.4044 -0.5531
vn -0.3132 0.9194 -0.2379
vn -0.3132 -0.9194 -0.2379
vn -0.7284 -0.4044 -0.5531
vn 0.3056 -0.9239 0.2304
vn 0.7377 -0.3827 0.5562
vn 0.8957 0.0000 -0.4446
vn 0.9829 0.0000 -0.1842
vn -0.8957 0.0000 -0.4446
vn -0.9829 0.0000 -0.1842
usemtl None
s off
f 35/1/1 41/2/1 8/3/1 2/4/1
f 159/5/2 130/6/2 74/7/2 79/8/2
f 59/9/3 48/10/3 147/11/3 94/12/3
f 57/13/4 24/14/4 9/15/4 40/16/4
f 3/17/5 10/18/5 27/19/5 16/20/5
f 17/21/6 26/22/6 123/23/6 138/24/6
f 111/25/4 102/26/4 86/27/4 66/28/4
f 73/29/7 67/30/7 88/31/7 80/32/7
f 121/33/4 96/34/4 103/35/4 114/36/4
f 105/37/8 156/38/8 81/39/8 87/40/8
f 25/41/4 56/42/4 93/43/4 120/44/4
f 129/45/9 112/46/9 65/47/9 72/48/9
f 139/49/5 122/50/5 113/51/5 132/52/5
f 47/53/2 18/54/2 141/55/2 148/56/2
f 149/57/2 140/58/2 131/59/2 158/60/2
f 49/61/10 58/62/10 42/63/10 34/64/10
f 95/65/10 150/66/10 157/67/10 104/68/10
f 1/69/11 4/70/11 5/71/11 7/72/11
f 2/4/12 6/73/12 5/74/12 4/75/12
f 3/17/13 7/76/13 5/77/13 6/73/13
f 8/3/14 11/78/14 12/79/14 14/80/14
f 9/15/15 13/81/15 12/82/15 11/83/15
f 10/18/16 14/80/16 12/84/16 13/85/16
f 15/86/17 19/87/17 20/88/17 23/89/17
f 16/20/18 21/90/18 20/91/18 19/92/18
f 17/21/19 22/93/19 20/94/19 21/90/19
f 18/54/20 23/89/20 20/95/20 22/96/20
f 24/14/21 28/97/21 29/98/21 32/99/21
f 25/41/22 30/100/22 29/101/22 28/97/22
f 26/22/23 31/102/23 29/103/23 30/104/23
f 27/19/24 32/105/24 29/106/24 31/102/24
f 33/107/25 36/108/25 37/109/25 39/110/25
f 34/64/26 38/111/26 37/112/26 36/113/26
f 35/1/27 39/114/27 37/115/27 38/111/27
f 40/16/28 43/116/28 44/117/28 46/118/28
f 41/2/29 45/119/29 44/120/29 43/121/29
f 42/63/30 46/122/30 44/123/30 45/119/30
f 47/53/31 51/124/31 52/125/31 55/126/31
f 48/10/32 53/127/32 52/128/32 51/129/32
f 49/61/33 54/130/33 52/131/33 53/127/33
f 50/132/34 55/126/34 52/133/34 54/134/34
f 56/42/35 60/135/35 61/136/35 64/137/35
f 57/13/36 62/138/36 61/139/36 60/135/36
f 58/62/37 63/140/37 61/141/37 62/142/37
f 59/9/38 64/143/38 61/144/38 63/140/38
f 65/47/39 68/145/39 69/146/39 71/147/39
f 66/28/40 70/148/40 69/149/40 68/150/40
f 67/30/41 71/151/41 69/152/41 70/148/41
f 72/48/42 75/153/42 76/154/42 78/155/42
f 73/29/43 77/156/43 76/157/43 75/158/43
f 74/7/44 78/159/44 76/160/44 77/156/44
f 79/8/45 82/161/45 83/162/45 85/163/45
f 80/32/46 84/164/46 83/165/46 82/161/46
f 81/39/47 85/166/47 83/167/47 84/168/47
f 86/27/48 89/169/48 90/170/48 92/171/48
f 87/40/49 91/172/49 90/173/49 89/174/49
f 88/31/50 92/171/50 90/175/50 91/176/50
f 93/43/51 97/177/51 98/178/51 101/179/51
f 94/12/52 99/180/52 98/181/52 97/182/52
f 95/65/53 100/183/53 98/184/53 99/180/53
f 96/34/54 101/179/54 98/185/54 100/186/54
f 102/26/55 106/187/55 107/188/55 110/189/55
f 103/35/56 108/190/56 107/191/56 106/187/56
f 104/68/57 109/192/57 107/193/57 108/194/57
f 105/37/58 110/195/58 107/196/58 109/192/58
f 111/25/59 115/197/59 116/198/59 119/199/59
f 112/46/60 117/200/60 116/201/60 115/202/60
f 113/51/61 118/203/61 116/204/61 117/200/61
f 114/36/62 119/199/62 116/205/62 118/206/62
f 120/44/63 124/207/63 125/208/63 128/209/63
f 121/33/64 126/210/64 125/211/64 124/207/64
f 122/50/65 127/212/65 125/213/65 126/214/65
f 123/23/66 128/215/66 125/216/66 127/212/66
f 129/45/67 133/217/67 134/218/67 137/219/67
f 130/6/68 135/220/68 134/221/68 133/222/68
f 131/59/69 136/223/69 134/224/69 135/220/69
f 132/52/70 137/219/70 134/225/70 136/226/70
f 138/24/71 142/227/71 143/228/71 146/229/71
f 139/49/72 144/230/72 143/231/72 142/227/72
f 140/58/73 145/232/73 143/233/73 144/234/73
f 141/55/74 146/235/74 143/236/74 145/232/74
f 147/11/75 151/237/75 152/238/75 155/239/75
f 148/56/76 153/240/76 152/241/76 151/242/76
f 149/57/77 154/243/77 152/244/77 153/240/77
f 150/66/78 155/239/78 152/245/78 154/246/78
f 156/38/79 160/247/79 161/248/79 164/249/79
f 157/67/80 162/250/80 161/251/80 160/247/80
f 158/60/81 163/252/81 161/253/81 162/254/81
f 159/5/82 164/255/82 161/256/82 163/252/82
f 15/86/83 1/69/83 7/72/83 19/87/83
f 19/92/84 7/76/84 3/17/84 16/20/84
f 2/4/85 8/3/85 14/80/85 6/73/85
f 6/73/86 14/80/86 10/18/86 3/17/86
f 9/15/87 24/14/87 32/99/87 13/81/87
f 13/85/88 32/105/88 27/19/88 10/18/88
f 26/22/89 17/21/89 21/90/89 31/102/89
f 31/102/90 21/90/90 16/20/90 27/19/90
f 50/132/2 15/86/2 23/89/2 55/126/2
f 55/126/2 23/89/2 18/54/2 47/53/2
f 24/14/4 57/13/4 60/135/4 28/97/4
f 28/97/4 60/135/4 56/42/4 25/41/4
f 58/62/91 49/61/91 53/127/91 63/140/91
f 63/140/92 53/127/92 48/10/92 59/9/92
f 33/107/93 50/132/93 54/134/93 36/108/93
f 36/113/94 54/130/94 49/61/94 34/64/94
f 57/13/95 40/16/95 46/118/95 62/138/95
f 62/142/96 46/122/96 42/63/96 58/62/96
f 41/2/97 35/1/97 38/111/97 45/119/97
f 45/119/98 38/111/98 34/64/98 42/63/98
f 1/69/99 33/107/99 39/110/99 4/70/99
f 4/75/100 39/114/100 35/1/100 2/4/100
f 40/16/101 9/15/101 11/83/101 43/116/101
f 43/121/102 11/78/102 8/3/102 41/2/102
f 67/30/103 73/29/103 75/158/103 71/151/103
f 71/147/104 75/153/104 72/48/104 65/47/104
f 79/8/105 74/7/105 77/156/105 82/161/105
f 82/161/106 77/156/106 73/29/106 80/32/106
f 66/28/107 86/27/107 92/171/107 70/148/107
f 70/148/108 92/171/108 88/31/108 67/30/108
f 87/40/109 81/39/109 84/168/109 91/172/109
f 91/176/110 84/164/110 80/32/110 88/31/110
f 105/37/111 87/40/111 89/174/111 110/195/111
f 110/189/112 89/169/112 86/27/112 102/26/112
f 123/23/113 26/22/113 30/104/113 128/215/113
f 128/209/114 30/100/114 25/41/114 120/44/114
f 141/55/115 18/54/115 22/96/115 146/235/115
f 146/229/116 22/93/116 17/21/116 138/24/116
f 159/5/117 79/8/117 85/163/117 164/255/117
f 164/249/118 85/166/118 81/39/118 156/38/118
f 59/9/119 94/12/119 97/182/119 64/143/119
f 64/137/120 97/177/120 93/43/120 56/42/120
f 95/65/96 104/68/96 108/194/96 100/183/96
f 100/186/95 108/190/95 103/35/95 96/34/95
f 65/47/121 112/46/121 115/202/121 68/145/121
f 68/150/122 115/197/122 111/25/122 66/28/122
f 113/51/88 122/50/88 126/214/88 118/203/88
f 118/206/87 126/210/87 121/33/87 114/36/87
f 74/7/123 130/6/123 133/222/123 78/159/123
f 78/155/124 133/217/124 129/45/124 72/48/124
f 131/59/83 140/58/83 144/234/83 136/223/83
f 136/226/84 144/230/84 139/49/84 132/52/84
f 47/53/125 148/56/125 151/242/125 51/124/125
f 51/129/126 151/237/126 147/11/126 48/10/126
f 149/57/93 158/60/93 162/254/93 154/243/93
f 154/246/94 162/250/94 157/67/94 150/66/94
f 140/58/2 149/57/2 153/240/2 145/232/2
f 145/232/2 153/240/2 148/56/2 141/55/2
f 130/6/2 159/5/2 163/252/2 135/220/2
f 135/220/2 163/252/2 158/60/2 131/59/2
f 150/66/91 95/65/91 99/180/91 155/239/91
f 155/239/92 99/180/92 94/12/92 147/11/92
f 156/38/127 105/37/127 109/192/127 160/247/127
f 160/247/128 109/192/128 104/68/128 157/67/128
f 122/50/90 139/49/90 142/227/90 127/212/90
f 127/212/89 142/227/89 138/24/89 123/23/89
f 112/46/129 129/45/129 137/219/129 117/200/129
f 117/200/130 137/219/130 132/52/130 113/51/130
f 96/34/4 121/33/4 124/207/4 101/179/4
f 101/179/4 124/207/4 120/44/4 93/43/4
f 102/26/4 111/25/4 119/199/4 106/187/4
f 106/187/4 119/199/4 114/36/4 103/35/4
f 15/86/2 50/132/2 33/107/2 1/69/2
