# Blender v3.0.0 Alpha OBJ File: 'bricks.blend'
# www.blender.org
mtllib octagon.mtl
o Cylinder_Cylinder.014
v 0.000000 -0.288393 -0.955491
v -0.037991 -0.247272 -0.984264
v 0.037991 -0.247272 -0.984264
v -0.026864 -0.276349 -0.973136
v 0.000000 -0.271013 -0.983943
v 0.000000 -0.247272 -0.993482
v 0.026864 -0.276349 -0.973136
v 0.000000 0.288393 -0.955491
v 0.037991 0.247272 -0.984264
v -0.037991 0.247272 -0.984264
v 0.026864 0.276349 -0.973136
v 0.000000 0.271013 -0.983943
v 0.000000 0.247272 -0.993482
v -0.026864 0.276349 -0.973136
v 0.675634 -0.288393 -0.675634
v 0.669116 -0.247272 -0.722843
v 0.722843 -0.247272 -0.669116
v 0.675634 -0.276349 -0.707107
v 0.696711 -0.271014 -0.696711
v 0.700589 -0.247272 -0.700589
v 0.707107 -0.276349 -0.675634
v 0.675634 0.288393 -0.675634
v 0.722843 0.247272 -0.669116
v 0.669116 0.247272 -0.722843
v 0.707107 0.276349 -0.675634
v 0.696711 0.271014 -0.696711
v 0.700589 0.247272 -0.700589
v 0.675634 0.276349 -0.707107
v 0.955491 -0.288393 0.000000
v 0.984264 -0.247272 -0.037991
v 0.984264 -0.247272 0.037991
v 0.973136 -0.276349 -0.026863
v 0.983943 -0.271013 0.000000
v 0.993482 -0.247272 0.000000
v 0.973136 -0.276349 0.026864
v 0.955491 0.288393 0.000000
v 0.984264 0.247272 0.037991
v 0.984264 0.247272 -0.037991
v 0.973136 0.276349 0.026864
v 0.983943 0.271013 0.000000
v 0.993482 0.247272 0.000000
v 0.973136 0.276349 -0.026863
v 0.675634 -0.288393 0.675634
v 0.722843 -0.247272 0.669116
v 0.669116 -0.247272 0.722843
v 0.707107 -0.276349 0.669116
v 0.695753 -0.271013 0.695753
v 0.702498 -0.247272 0.702498
v 0.669116 -0.276349 0.707107
v 0.675634 0.288393 0.675634
v 0.669116 0.247272 0.722843
v 0.722843 0.247272 0.669116
v 0.669116 0.276349 0.707107
v 0.695753 0.271013 0.695753
v 0.702498 0.247272 0.702498
v 0.707107 0.276349 0.669116
v -0.000000 -0.288393 0.955491
v 0.037991 -0.247272 0.984264
v -0.037991 -0.247272 0.984264
v 0.026863 -0.276349 0.973136
v -0.000000 -0.271013 0.983943
v -0.000000 -0.247272 0.993482
v -0.026864 -0.276349 0.973136
v -0.000000 0.288393 0.955491
v -0.037991 0.247272 0.984264
v 0.037991 0.247272 0.984264
v -0.026864 0.276349 0.973136
v -0.000000 0.271013 0.983943
v -0.000000 0.247272 0.993482
v 0.026863 0.276349 0.973136
v -0.675634 -0.288393 0.675634
v -0.669116 -0.247272 0.722843
v -0.722843 -0.247272 0.669116
v -0.675634 -0.276349 0.707107
v -0.696711 -0.271014 0.696711
v -0.700589 -0.247272 0.700589
v -0.707107 -0.276349 0.675634
v -0.675634 0.288393 0.675634
v -0.722843 0.247272 0.669116
v -0.669116 0.247272 0.722843
v -0.707107 0.276349 0.675634
v -0.696711 0.271014 0.696711
v -0.700589 0.247272 0.700589
v -0.675634 0.276349 0.707107
v -0.955491 -0.288393 -0.000000
v -0.984264 -0.247272 0.037991
v -0.984264 -0.247272 -0.037991
v -0.977745 -0.276349 0.022254
v -0.985298 -0.271014 -0.000000
v -0.990782 -0.247272 -0.000000
v -0.977745 -0.276349 -0.022254
v -0.955491 0.288393 -0.000000
v -0.984264 0.247272 -0.037991
v -0.984264 0.247272 0.037991
v -0.977745 0.276349 -0.022254
v -0.985298 0.271014 -0.000000
v -0.990782 0.247272 -0.000000
v -0.977745 0.276349 0.022254
v -0.675634 -0.288393 -0.675634
v -0.722843 -0.247272 -0.669116
v -0.669116 -0.247272 -0.722843
v -0.707107 -0.276349 -0.675634
v -0.696711 -0.271014 -0.696711
v -0.700589 -0.247272 -0.700588
v -0.675634 -0.276349 -0.707107
v -0.675634 0.288393 -0.675634
v -0.669116 0.247272 -0.722843
v -0.722843 0.247272 -0.669116
v -0.675634 0.276349 -0.707107
v -0.696711 0.271014 -0.696711
v -0.700589 0.247272 -0.700588
v -0.707107 0.276349 -0.675634
vt 0.392491 0.993666
vt 0.311233 0.993667
vt 0.311233 0.881423
vt 0.392491 0.881423
vt 0.392490 0.618577
vt 0.311232 0.618577
vt 0.311232 0.506333
vt 0.392490 0.506333
vt 0.392490 0.493487
vt 0.311232 0.493487
vt 0.311232 0.381243
vt 0.392490 0.381243
vt 0.392490 0.368397
vt 0.311232 0.368397
vt 0.311233 0.256153
vt 0.392490 0.256154
vt 0.392490 0.243487
vt 0.311233 0.243487
vt 0.311233 0.131243
vt 0.392491 0.131244
vt 0.392491 0.118577
vt 0.311233 0.118577
vt 0.311233 0.006333
vt 0.392491 0.006334
vt 0.392490 0.743666
vt 0.311233 0.743667
vt 0.311232 0.631423
vt 0.392490 0.631423
vt 0.300669 0.095121
vt 0.300983 0.215271
vt 0.216232 0.299828
vt 0.096691 0.299244
vt 0.011093 0.215606
vt 0.010221 0.095739
vt 0.094430 0.010335
vt 0.214842 0.010368
vt 0.392491 0.868576
vt 0.311233 0.868577
vt 0.311233 0.756333
vt 0.392490 0.756333
vt 0.010376 0.525820
vt 0.008898 0.531123
vt 0.005649 0.527796
vt 0.005565 0.523147
vt 0.005364 0.535257
vt 0.001682 0.529453
vt 0.000142 0.522756
vt 0.305800 0.212577
vt 0.305728 0.217234
vt 0.302488 0.220575
vt 0.311232 0.212176
vt 0.309702 0.218880
vt 0.306040 0.224693
vt 0.010524 0.405997
vt 0.005371 0.407740
vt 0.005528 0.403946
vt 0.008082 0.401135
vt 0.000000 0.409046
vt 0.001720 0.402383
vt 0.005174 0.396429
vt 0.303071 0.090229
vt 0.305657 0.093031
vt 0.305838 0.096837
vt 0.305944 0.085472
vt 0.309472 0.091434
vt 0.311232 0.098126
vt 0.094720 0.320539
vt 0.089414 0.319058
vt 0.092745 0.315807
vt 0.097398 0.315724
vt 0.085277 0.315520
vt 0.091087 0.311835
vt 0.097793 0.310296
vt 0.212113 0.005507
vt 0.216816 0.005569
vt 0.220196 0.008827
vt 0.211705 0.000000
vt 0.218469 0.001553
vt 0.224333 0.005228
vt 0.214744 0.320612
vt 0.212031 0.315762
vt 0.216723 0.315831
vt 0.220089 0.319091
vt 0.211629 0.310267
vt 0.218382 0.311825
vt 0.224232 0.315511
vt 0.089094 0.008852
vt 0.092446 0.005577
vt 0.097123 0.005497
vt 0.084911 0.005273
vt 0.090778 0.001576
vt 0.097524 0.000043
vt 0.300237 0.405639
vt 0.301744 0.400284
vt 0.305018 0.403659
vt 0.305085 0.408351
vt 0.305355 0.396099
vt 0.309036 0.402001
vt 0.310549 0.408763
vt 0.005422 0.098458
vt 0.005464 0.093805
vt 0.008680 0.090443
vt 0.000000 0.098892
vt 0.001482 0.092186
vt 0.005100 0.086349
vt 0.299993 0.526076
vt 0.305158 0.524356
vt 0.304981 0.528155
vt 0.302419 0.530950
vt 0.310549 0.523071
vt 0.308775 0.529739
vt 0.305253 0.535628
vt 0.008730 0.220494
vt 0.006134 0.217714
vt 0.005934 0.213920
vt 0.005878 0.225265
vt 0.002334 0.219326
vt 0.000547 0.212660
vt 0.215476 0.610579
vt 0.220328 0.613005
vt 0.217519 0.615565
vt 0.213735 0.615725
vt 0.225054 0.615913
vt 0.219078 0.619370
vt 0.212415 0.621032
vt 0.098432 0.304407
vt 0.094632 0.304249
vt 0.091823 0.301706
vt 0.099722 0.309806
vt 0.093069 0.308047
vt 0.087167 0.304582
vt 0.095812 0.609966
vt 0.097550 0.615130
vt 0.093747 0.614965
vt 0.090939 0.612402
vt 0.098840 0.620538
vt 0.092171 0.618775
vt 0.086226 0.615303
vt 0.221076 0.302257
vt 0.218273 0.304807
vt 0.214495 0.304967
vt 0.225776 0.305145
vt 0.219828 0.308601
vt 0.213180 0.310267
vt 0.311233 0.875000
vt 0.392491 0.875000
vt 0.392490 0.750000
vt 0.311233 0.750000
vt 0.392490 0.625000
vt 0.311232 0.625000
vt 0.392490 0.499910
vt 0.311232 0.499910
vt 0.392490 0.374820
vt 0.311232 0.374820
vt 0.392490 0.249820
vt 0.311233 0.249820
vt 0.392491 0.124910
vt 0.311233 0.124910
vt 0.392491 1.000000
vt 0.311233 1.000000
vt 0.311233 0.000000
vt 0.392491 0.000000
vn -0.3827 0.0000 -0.9239
vn 0.9239 0.0000 0.3827
vn 0.3827 0.0000 0.9239
vn -0.3827 0.0000 0.9239
vn -0.9239 0.0000 0.3827
vn -0.9239 0.0000 -0.3827
vn 0.9239 0.0000 -0.3827
vn 0.0000 1.0000 0.0000
vn 0.3827 0.0000 -0.9239
vn 0.0000 -0.8534 -0.5213
vn -0.2408 -0.3972 -0.8856
vn 0.2408 -0.3972 -0.8856
vn 0.0000 0.8534 -0.5213
vn 0.2408 0.3972 -0.8856
vn -0.2408 0.3972 -0.8856
vn 0.3562 -0.8639 -0.3562
vn 0.5276 -0.2724 -0.8046
vn 0.8046 -0.2724 -0.5276
vn 0.3562 0.8639 -0.3562
vn 0.8046 0.2724 -0.5276
vn 0.5276 0.2724 -0.8046
vn 0.5213 -0.8534 0.0000
vn 0.8856 -0.3972 -0.2408
vn 0.8856 -0.3972 0.2408
vn 0.5213 0.8534 0.0000
vn 0.8856 0.3972 0.2408
vn 0.8856 0.3972 -0.2408
vn 0.3686 -0.8534 0.3686
vn 0.7964 -0.3972 0.4560
vn 0.4560 -0.3972 0.7964
vn 0.3686 0.8534 0.3686
vn 0.4560 0.3972 0.7964
vn 0.7964 0.3972 0.4560
vn 0.0000 -0.8534 0.5213
vn 0.2408 -0.3972 0.8856
vn -0.2408 -0.3972 0.8856
vn 0.0000 0.8534 0.5213
vn -0.2408 0.3972 0.8856
vn 0.2408 0.3972 0.8856
vn -0.3562 -0.8639 0.3562
vn -0.5276 -0.2724 0.8046
vn -0.8046 -0.2724 0.5276
vn -0.3562 0.8639 0.3562
vn -0.8046 0.2724 0.5276
vn -0.5276 0.2724 0.8046
vn -0.5037 -0.8639 0.0000
vn -0.9420 -0.2724 0.1959
vn -0.9420 -0.2724 -0.1959
vn -0.5037 0.8639 0.0000
vn -0.9420 0.2724 -0.1959
vn -0.9420 0.2724 0.1959
vn -0.3562 -0.8639 -0.3562
vn -0.8046 -0.2724 -0.5276
vn -0.5276 -0.2724 -0.8046
vn -0.3562 0.8639 -0.3562
vn -0.5276 0.2724 -0.8046
vn -0.8046 0.2724 -0.5276
vn 0.3465 -0.4159 -0.8408
vn 0.1514 -0.9177 -0.3673
vn 0.3465 0.4159 -0.8408
vn 0.1514 0.9177 -0.3673
vn -0.2358 -0.0000 -0.9718
vn 0.2358 -0.0000 -0.9718
vn 0.8165 0.0000 -0.5773
vn 0.5773 0.0000 -0.8165
vn 0.8408 -0.4159 -0.3465
vn 0.3673 -0.9177 -0.1514
vn 0.8408 0.4159 -0.3465
vn 0.3673 0.9177 -0.1514
vn 0.9718 0.0000 0.2358
vn 0.9718 0.0000 -0.2358
vn 0.8263 -0.4472 0.3423
vn 0.3813 -0.9109 0.1579
vn 0.8263 0.4472 0.3423
vn 0.3813 0.9109 0.1579
vn 0.5204 -0.0000 0.8539
vn 0.8539 0.0000 0.5204
vn 0.3423 -0.4472 0.8263
vn 0.1579 -0.9109 0.3813
vn 0.3423 0.4472 0.8263
vn 0.1579 0.9109 0.3813
vn -0.2358 0.0000 0.9718
vn 0.2358 0.0000 0.9718
vn -0.3465 -0.4159 0.8408
vn -0.1514 -0.9177 0.3673
vn -0.3465 0.4159 0.8408
vn -0.1514 0.9177 0.3673
vn -0.8165 0.0000 0.5773
vn -0.5773 0.0000 0.8165
vn -0.8536 -0.3827 0.3536
vn -0.3536 -0.9239 0.1464
vn -0.8536 0.3827 0.3536
vn -0.3536 0.9239 0.1464
vn -0.9856 0.0000 -0.1691
vn -0.9856 0.0000 0.1691
vn -0.8536 -0.3827 -0.3536
vn -0.3536 -0.9239 -0.1464
vn -0.8536 0.3827 -0.3536
vn -0.3536 0.9239 -0.1464
vn -0.5773 0.0000 -0.8165
vn -0.8165 0.0000 -0.5773
vn -0.3465 -0.4159 -0.8408
vn -0.1514 -0.9177 -0.3673
vn -0.3465 0.4159 -0.8408
vn -0.1514 0.9177 -0.3673
vn 0.0000 -1.0000 -0.0000
usemtl None
s off
f 101/1/1 107/2/1 10/3/1 2/4/1
f 31/5/2 37/6/2 52/7/2 44/8/2
f 45/9/3 51/10/3 66/11/3 58/12/3
f 59/13/4 65/14/4 80/15/4 72/16/4
f 73/17/5 79/18/5 94/19/5 86/20/5
f 87/21/6 93/22/6 108/23/6 100/24/6
f 17/25/7 23/26/7 38/27/7 30/28/7
f 22/29/8 8/30/8 106/31/8 92/32/8 78/33/8 64/34/8 50/35/8 36/36/8
f 3/37/9 9/38/9 24/39/9 16/40/9
f 1/41/10 4/42/10 5/43/10 7/44/10
f 2/45/11 6/46/11 5/43/11 4/42/11
f 3/47/12 7/44/12 5/43/12 6/46/12
f 8/30/13 11/48/13 12/49/13 14/50/13
f 9/51/14 13/52/14 12/49/14 11/48/14
f 10/53/15 14/50/15 12/49/15 13/52/15
f 15/54/16 18/55/16 19/56/16 21/57/16
f 16/58/17 20/59/17 19/56/17 18/55/17
f 17/60/18 21/57/18 19/56/18 20/59/18
f 22/29/19 25/61/19 26/62/19 28/63/19
f 23/64/20 27/65/20 26/62/20 25/61/20
f 24/66/21 28/63/21 26/62/21 27/65/21
f 29/67/22 32/68/22 33/69/22 35/70/22
f 30/71/23 34/72/23 33/69/23 32/68/23
f 31/73/24 35/70/24 33/69/24 34/72/24
f 36/36/25 39/74/25 40/75/25 42/76/25
f 37/77/26 41/78/26 40/75/26 39/74/26
f 38/79/27 42/76/27 40/75/27 41/78/27
f 43/80/28 46/81/28 47/82/28 49/83/28
f 44/84/29 48/85/29 47/82/29 46/81/29
f 45/86/30 49/83/30 47/82/30 48/85/30
f 50/35/31 53/87/31 54/88/31 56/89/31
f 51/90/32 55/91/32 54/88/32 53/87/32
f 52/92/33 56/89/33 54/88/33 55/91/33
f 57/93/34 60/94/34 61/95/34 63/96/34
f 58/97/35 62/98/35 61/95/35 60/94/35
f 59/99/36 63/96/36 61/95/36 62/98/36
f 64/34/37 67/100/37 68/101/37 70/102/37
f 65/103/38 69/104/38 68/101/38 67/100/38
f 66/105/39 70/102/39 68/101/39 69/104/39
f 71/106/40 74/107/40 75/108/40 77/109/40
f 72/110/41 76/111/41 75/108/41 74/107/41
f 73/112/42 77/109/42 75/108/42 76/111/42
f 78/33/43 81/113/43 82/114/43 84/115/43
f 79/116/44 83/117/44 82/114/44 81/113/44
f 80/118/45 84/115/45 82/114/45 83/117/45
f 85/119/46 88/120/46 89/121/46 91/122/46
f 86/123/47 90/124/47 89/121/47 88/120/47
f 87/125/48 91/122/48 89/121/48 90/124/48
f 92/32/49 95/126/49 96/127/49 98/128/49
f 93/129/50 97/130/50 96/127/50 95/126/50
f 94/131/51 98/128/51 96/127/51 97/130/51
f 99/132/52 102/133/52 103/134/52 105/135/52
f 100/136/53 104/137/53 103/134/53 102/133/53
f 101/138/54 105/135/54 103/134/54 104/137/54
f 106/31/55 109/139/55 110/140/55 112/141/55
f 107/142/56 111/143/56 110/140/56 109/139/56
f 108/144/57 112/141/57 110/140/57 111/143/57
f 3/47/58 16/58/58 18/55/58 7/44/58
f 7/44/59 18/55/59 15/54/59 1/41/59
f 24/66/60 9/51/60 11/48/60 28/63/60
f 28/63/61 11/48/61 8/30/61 22/29/61
f 2/4/62 10/3/62 13/145/62 6/146/62
f 6/146/63 13/145/63 9/38/63 3/37/63
f 23/26/64 17/25/64 20/147/64 27/148/64
f 27/148/65 20/147/65 16/40/65 24/39/65
f 17/60/66 30/71/66 32/68/66 21/57/66
f 21/57/67 32/68/67 29/67/67 15/54/67
f 38/79/68 23/64/68 25/61/68 42/76/68
f 42/76/69 25/61/69 22/29/69 36/36/69
f 37/6/70 31/5/70 34/149/70 41/150/70
f 41/150/71 34/149/71 30/28/71 38/27/71
f 31/73/72 44/84/72 46/81/72 35/70/72
f 35/70/73 46/81/73 43/80/73 29/67/73
f 52/92/74 37/77/74 39/74/74 56/89/74
f 56/89/75 39/74/75 36/36/75 50/35/75
f 51/10/76 45/9/76 48/151/76 55/152/76
f 55/152/77 48/151/77 44/8/77 52/7/77
f 45/86/78 58/97/78 60/94/78 49/83/78
f 49/83/79 60/94/79 57/93/79 43/80/79
f 66/105/80 51/90/80 53/87/80 70/102/80
f 70/102/81 53/87/81 50/35/81 64/34/81
f 65/14/82 59/13/82 62/153/82 69/154/82
f 69/154/83 62/153/83 58/12/83 66/11/83
f 59/99/84 72/110/84 74/107/84 63/96/84
f 63/96/85 74/107/85 71/106/85 57/93/85
f 80/118/86 65/103/86 67/100/86 84/115/86
f 84/115/87 67/100/87 64/34/87 78/33/87
f 79/18/88 73/17/88 76/155/88 83/156/88
f 83/156/89 76/155/89 72/16/89 80/15/89
f 73/112/90 86/123/90 88/120/90 77/109/90
f 77/109/91 88/120/91 85/119/91 71/106/91
f 94/131/92 79/116/92 81/113/92 98/128/92
f 98/128/93 81/113/93 78/33/93 92/32/93
f 93/22/94 87/21/94 90/157/94 97/158/94
f 97/158/95 90/157/95 86/20/95 94/19/95
f 87/125/96 100/136/96 102/133/96 91/122/96
f 91/122/97 102/133/97 99/132/97 85/119/97
f 108/144/98 93/129/98 95/126/98 112/141/98
f 112/141/99 95/126/99 92/32/99 106/31/99
f 107/2/100 101/1/100 104/159/100 111/160/100
f 111/161/101 104/162/101 100/24/101 108/23/101
f 101/138/102 2/45/102 4/42/102 105/135/102
f 105/135/103 4/42/103 1/41/103 99/132/103
f 10/53/104 107/142/104 109/139/104 14/50/104
f 14/50/105 109/139/105 106/31/105 8/30/105
f 1/41/106 15/54/106 29/67/106 43/80/106 57/93/106 71/106/106 85/119/106 99/132/106
